<svg xmlns="http://www.w3.org/2000/svg" xmlns:xlink="http://www.w3.org/1999/xlink" width="200" zoomAndPan="magnify" viewBox="0 0 150 149.999998" height="200" preserveAspectRatio="xMidYMid meet" version="1.0"><defs><filter x="0%" y="0%" width="100%" height="100%" id="82c1c75644"><feColorMatrix values="0 0 0 0 1 0 0 0 0 1 0 0 0 0 1 0 0 0 1 0" color-interpolation-filters="sRGB"/></filter><mask id="c29d52dab6"><g filter="url(#82c1c75644)"><rect x="-15" width="180" fill="#000000" y="-15" height="179.999997" fill-opacity="0.71"/></g></mask><clipPath id="65bca2bf06"><path d="M 0.160156 1 L 125.441406 1 L 125.441406 107.640625 L 0.160156 107.640625 Z M 0.160156 1 " clip-rule="nonzero"/></clipPath><clipPath id="55bd671500"><rect x="0" width="126" y="0" height="108"/></clipPath><clipPath id="1eed873069"><path d="M 126 66 L 142.875 66 L 142.875 117 L 126 117 Z M 126 66 " clip-rule="nonzero"/></clipPath><clipPath id="596e98b581"><path d="M 130 114 L 142.875 114 L 142.875 119 L 130 119 Z M 130 114 " clip-rule="nonzero"/></clipPath><clipPath id="f4600fb123"><path d="M 130 118 L 142.875 118 L 142.875 120 L 130 120 Z M 130 118 " clip-rule="nonzero"/></clipPath><clipPath id="e17e2632a5"><path d="M 126 62 L 142.875 62 L 142.875 107 L 126 107 Z M 126 62 " clip-rule="nonzero"/></clipPath><clipPath id="f9ced3f8c8"><path d="M 7.125 62 L 30 62 L 30 116 L 7.125 116 Z M 7.125 62 " clip-rule="nonzero"/></clipPath><clipPath id="7260064d89"><path d="M 7.125 112 L 21 112 L 21 120.699219 L 7.125 120.699219 Z M 7.125 112 " clip-rule="nonzero"/></clipPath><clipPath id="07c39a5040"><path d="M 7.125 114 L 20 114 L 20 120.699219 L 7.125 120.699219 Z M 7.125 114 " clip-rule="nonzero"/></clipPath></defs><g mask="url(#c29d52dab6)"><g transform="matrix(1, 0, 0, 1, 8, 27)"><g clip-path="url(#55bd671500)"><g clip-path="url(#65bca2bf06)"><path fill="#ff9900" d="M 2.726562 22.035156 C -0.824219 28.226562 0.691406 36.125 2.667969 43.035156 C 4.640625 49.949219 6.976562 57.363281 4.769531 64.199219 C 4.101562 66.265625 3.023438 68.230469 2.867188 70.40625 C 2.570312 74.558594 5.828125 78.25 9.550781 79.730469 C 13.277344 81.210938 17.386719 81.011719 21.371094 80.929688 C 25.355469 80.847656 29.527344 80.953125 33.03125 82.933594 C 40.144531 86.953125 41.921875 96.972656 47.984375 102.566406 C 52.589844 106.816406 59.21875 107.984375 65.308594 107.136719 C 71.398438 106.285156 77.105469 103.648438 82.71875 101.042969 C 91.035156 97.183594 99.414062 93.285156 106.824219 87.765625 C 113.710938 82.632812 119.785156 75.957031 122.972656 67.765625 C 126.164062 59.574219 126.128906 49.746094 121.628906 42.261719 C 117.929688 36.125 111.292969 31.1875 111.09375 23.9375 C 110.976562 19.679688 113.242188 15.503906 112.5 11.3125 C 110.804688 1.738281 97.746094 0.300781 90.453125 1.355469 C 81.730469 2.621094 74.445312 7.757812 68.355469 14.144531 C 64.414062 18.273438 60.6875 23.445312 54.777344 24.277344 C 45.972656 25.515625 36.996094 18.800781 28.949219 16.070312 C 20.277344 13.125 8.117188 12.628906 2.726562 22.035156 " fill-opacity="1" fill-rule="nonzero"/></g></g></g></g><path fill="#fcfcf0" d="M 51.53125 119.3125 C 50.832031 119.3125 50.3125 118.664062 50.464844 117.980469 L 53.34375 105.097656 C 53.457031 104.597656 53.898438 104.242188 54.410156 104.242188 C 55.109375 104.242188 55.628906 104.890625 55.476562 105.574219 L 52.597656 118.457031 C 52.488281 118.957031 52.042969 119.3125 51.53125 119.3125 " fill-opacity="1" fill-rule="nonzero"/><path fill="#fcfcf0" d="M 85.289062 119.3125 C 85.992188 119.3125 86.511719 118.664062 86.359375 117.980469 L 83.480469 105.097656 C 83.367188 104.597656 82.925781 104.242188 82.414062 104.242188 C 81.710938 104.242188 81.191406 104.890625 81.347656 105.574219 L 84.222656 118.457031 C 84.335938 118.957031 84.777344 119.3125 85.289062 119.3125 " fill-opacity="1" fill-rule="nonzero"/><path fill="#fcfcf0" d="M 105.242188 119.3125 C 105.941406 119.3125 106.460938 118.664062 106.308594 117.980469 L 103.429688 105.097656 C 103.320312 104.597656 102.875 104.242188 102.363281 104.242188 C 101.664062 104.242188 101.144531 104.890625 101.296875 105.574219 L 104.175781 118.457031 C 104.289062 118.957031 104.730469 119.3125 105.242188 119.3125 " fill-opacity="1" fill-rule="nonzero"/><path fill="#f5d562" d="M 50.859375 103.289062 L 50.859375 69.664062 C 50.859375 66.730469 53.238281 64.355469 56.167969 64.355469 L 87.195312 64.355469 C 90.128906 64.355469 92.507812 66.730469 92.507812 69.664062 L 92.507812 103.289062 C 92.507812 106.222656 90.128906 108.601562 87.195312 108.601562 L 56.167969 108.601562 C 53.238281 108.601562 50.859375 106.222656 50.859375 103.289062 " fill-opacity="1" fill-rule="nonzero"/><path fill="#f5d562" d="M 50.859375 103.289062 L 50.859375 85.855469 C 50.859375 82.921875 53.238281 80.546875 56.167969 80.546875 L 104.351562 80.546875 C 107.28125 80.546875 109.660156 82.921875 109.660156 85.855469 L 109.660156 103.289062 C 109.660156 106.222656 107.28125 108.601562 104.351562 108.601562 L 56.167969 108.601562 C 53.238281 108.601562 50.859375 106.222656 50.859375 103.289062 " fill-opacity="1" fill-rule="nonzero"/><path fill="#fcfcf0" d="M 108.871094 99.746094 C 108.828125 99.746094 108.792969 99.710938 108.792969 99.667969 C 108.792969 97.167969 106.757812 95.132812 104.257812 95.132812 L 78.378906 95.132812 C 78.332031 95.132812 78.296875 95.097656 78.296875 95.054688 C 78.296875 95.007812 78.332031 94.972656 78.378906 94.972656 L 104.257812 94.972656 C 106.847656 94.972656 108.953125 97.078125 108.953125 99.667969 C 108.953125 99.710938 108.914062 99.746094 108.871094 99.746094 Z M 108.871094 99.746094 " fill-opacity="1" fill-rule="nonzero"/><path fill="#ff9900" d="M 72.914062 95.355469 C 72.914062 95.355469 70.667969 92.402344 69.007812 84.914062 C 67.597656 78.550781 67.984375 74.578125 67.984375 74.578125 C 67.984375 74.578125 73.882812 73.21875 80.605469 73.386719 C 87.886719 73.570312 94.039062 75.308594 94.039062 75.308594 C 94.039062 75.308594 95.78125 78.785156 96.976562 85.214844 C 98.179688 91.6875 98.421875 96.453125 98.421875 96.453125 C 98.421875 96.453125 92.058594 97.25 84.917969 97.007812 C 78.105469 96.777344 72.914062 95.355469 72.914062 95.355469 " fill-opacity="1" fill-rule="nonzero"/><path fill="#f5d562" d="M 73.066406 80.546875 L 61.222656 80.546875 L 61.222656 69.664062 C 61.222656 66.730469 58.847656 64.355469 55.914062 64.355469 L 52.425781 64.355469 C 49.492188 64.355469 47.117188 66.730469 47.117188 69.664062 L 47.117188 103.289062 C 47.117188 106.222656 49.492188 108.601562 52.425781 108.601562 L 73.066406 108.601562 C 76 108.601562 78.375 106.222656 78.375 103.289062 L 78.375 85.855469 C 78.375 82.921875 76 80.546875 73.066406 80.546875 " fill-opacity="1" fill-rule="nonzero"/><path fill="#fcfcf0" d="M 67.472656 80.625 L 47.941406 80.625 C 47.898438 80.625 47.863281 80.589844 47.863281 80.546875 C 47.863281 80.5 47.898438 80.464844 47.941406 80.464844 L 67.472656 80.464844 C 67.515625 80.464844 67.554688 80.5 67.554688 80.546875 C 67.554688 80.589844 67.515625 80.625 67.472656 80.625 Z M 67.472656 80.625 " fill-opacity="1" fill-rule="nonzero"/><path fill="#fcfcf0" d="M 61.222656 80.625 C 61.179688 80.625 61.144531 80.589844 61.144531 80.546875 L 61.144531 69.664062 C 61.144531 67.359375 59.667969 65.351562 57.46875 64.667969 C 57.425781 64.65625 57.402344 64.609375 57.417969 64.570312 C 57.429688 64.527344 57.472656 64.503906 57.515625 64.515625 C 59.78125 65.222656 61.304688 67.289062 61.304688 69.664062 L 61.304688 80.546875 C 61.304688 80.589844 61.269531 80.625 61.222656 80.625 Z M 61.222656 80.625 " fill-opacity="1" fill-rule="nonzero"/><path fill="#fcfcf0" d="M 78.375 108.042969 C 78.332031 108.042969 78.296875 108.007812 78.296875 107.960938 L 78.296875 97.191406 C 78.296875 97.148438 78.332031 97.113281 78.375 97.113281 C 78.421875 97.113281 78.457031 97.148438 78.457031 97.191406 L 78.457031 107.960938 C 78.457031 108.007812 78.421875 108.042969 78.375 108.042969 Z M 78.375 108.042969 " fill-opacity="1" fill-rule="nonzero"/><path fill="#fcfcf0" d="M 87.304688 85.066406 C 86.539062 85.171875 85.972656 84.378906 86.316406 83.6875 C 86.519531 83.273438 86.949219 82.621094 87.453125 81.898438 C 89.164062 79.441406 91.828125 77.8125 94.796875 77.40625 L 104.902344 76.023438 C 105.4375 75.949219 105.933594 76.324219 106.003906 76.859375 C 106.078125 77.394531 105.703125 77.886719 105.167969 77.960938 L 100.675781 78.578125 L 99.625 81.984375 C 99.351562 82.875 98.585938 83.523438 97.664062 83.648438 Z M 87.304688 85.066406 " fill-opacity="1" fill-rule="nonzero"/><path fill="#f5d562" d="M 86.855469 82.859375 C 86.816406 82.859375 86.78125 82.832031 86.777344 82.792969 C 86.769531 82.746094 86.800781 82.707031 86.84375 82.699219 L 95.199219 81.554688 C 95.910156 81.457031 96.507812 80.953125 96.71875 80.269531 L 97.738281 76.96875 C 97.75 76.925781 97.796875 76.902344 97.835938 76.917969 C 97.878906 76.929688 97.902344 76.976562 97.890625 77.015625 L 96.871094 80.316406 C 96.640625 81.058594 95.992188 81.609375 95.222656 81.714844 L 86.867188 82.859375 C 86.863281 82.859375 86.859375 82.859375 86.855469 82.859375 Z M 86.855469 82.859375 " fill-opacity="1" fill-rule="nonzero"/><path fill="#e88772" d="M 105.414062 44.269531 C 105.414062 44.269531 105.007812 45.085938 104.773438 45.417969 C 104.5 45.800781 104.441406 46.03125 104.8125 46.171875 C 105.382812 46.386719 106.332031 46.617188 106.332031 46.617188 L 106.34375 45.148438 Z M 105.414062 44.269531 " fill-opacity="1" fill-rule="nonzero"/><path fill="#e88772" d="M 105.421875 44.523438 C 104.785156 43.15625 104.101562 41.964844 104.75 40.195312 C 105.953125 36.917969 110.761719 36.089844 112.738281 38.234375 C 113.96875 39.570312 115.078125 42.65625 114.070312 45.011719 C 113.289062 46.84375 110.449219 48.824219 108.125 49 C 106.644531 49.113281 105.433594 45.261719 105.433594 45.261719 C 105.433594 45.261719 105.492188 44.648438 105.421875 44.523438 " fill-opacity="1" fill-rule="nonzero"/><path fill="#3d251c" d="M 106.082031 43.117188 C 105.878906 43.214844 105.921875 43.539062 105.988281 43.726562 C 106.039062 43.863281 106.210938 44.179688 106.429688 44.070312 C 106.644531 43.964844 106.660156 43.738281 106.519531 43.394531 C 106.378906 43.046875 106.160156 43.074219 106.082031 43.117188 " fill-opacity="1" fill-rule="nonzero"/><path fill="#3d251c" d="M 106.339844 44.175781 C 106.125 44.175781 105.96875 43.910156 105.914062 43.753906 C 105.839844 43.550781 105.785156 43.171875 106.046875 43.042969 C 106.070312 43.03125 106.121094 43.011719 106.1875 43.011719 C 106.285156 43.011719 106.46875 43.058594 106.59375 43.363281 C 106.65625 43.511719 106.839844 43.957031 106.46875 44.144531 C 106.425781 44.164062 106.382812 44.175781 106.339844 44.175781 Z M 106.1875 43.171875 C 106.152344 43.171875 106.125 43.183594 106.117188 43.1875 C 105.96875 43.261719 106.003906 43.53125 106.0625 43.699219 C 106.113281 43.828125 106.230469 44.011719 106.339844 44.011719 C 106.359375 44.011719 106.375 44.007812 106.394531 44 C 106.507812 43.945312 106.613281 43.828125 106.445312 43.425781 C 106.378906 43.261719 106.289062 43.171875 106.1875 43.171875 Z M 106.1875 43.171875 " fill-opacity="1" fill-rule="nonzero"/><path fill="#e88772" d="M 105.699219 43.664062 C 106.1875 43.640625 106.84375 43.453125 107.1875 43.007812 C 107.1875 43.007812 106.792969 42.542969 106.046875 42.855469 C 105.402344 43.125 105.699219 43.664062 105.699219 43.664062 " fill-opacity="1" fill-rule="nonzero"/><path fill="#3d251c" d="M 105.699219 43.746094 C 105.660156 43.746094 105.625 43.714844 105.617188 43.675781 C 105.613281 43.632812 105.644531 43.59375 105.6875 43.585938 C 106.199219 43.519531 106.859375 43.304688 107.167969 42.90625 C 107.195312 42.871094 107.246094 42.863281 107.28125 42.890625 C 107.316406 42.917969 107.320312 42.96875 107.292969 43.003906 C 106.867188 43.554688 105.972656 43.710938 105.707031 43.746094 C 105.703125 43.746094 105.703125 43.746094 105.699219 43.746094 Z M 105.699219 43.746094 " fill-opacity="1" fill-rule="nonzero"/><path fill="#3d251c" d="M 107.148438 42.292969 C 106.433594 42.460938 105.84375 42.648438 105.28125 43.050781 C 105.242188 43.066406 105.03125 42.707031 105.125 42.621094 C 105.734375 42.082031 106.40625 42.003906 107.148438 42.179688 C 107.207031 42.195312 107.207031 42.277344 107.148438 42.292969 " fill-opacity="1" fill-rule="nonzero"/><path fill="#3d251c" d="M 106.945312 47.433594 C 106.914062 47.433594 106.882812 47.414062 106.871094 47.382812 C 106.855469 47.339844 106.875 47.296875 106.917969 47.277344 C 107.269531 47.140625 107.5625 46.863281 107.699219 46.542969 C 107.714844 46.5 107.761719 46.480469 107.804688 46.5 C 107.84375 46.515625 107.863281 46.5625 107.847656 46.605469 C 107.695312 46.964844 107.367188 47.273438 106.976562 47.429688 C 106.964844 47.433594 106.957031 47.433594 106.945312 47.433594 Z M 106.945312 47.433594 " fill-opacity="1" fill-rule="nonzero"/><path fill="#e88772" d="M 109.972656 46.449219 C 110.578125 48.101562 111.503906 50.007812 112.539062 51.429688 C 114.164062 50.878906 115.941406 49.886719 117.339844 48.910156 C 115.671875 47.839844 114.316406 46.175781 113.769531 44.265625 C 112.726562 45.085938 111.421875 45.625 109.972656 46.449219 " fill-opacity="1" fill-rule="nonzero"/><path fill="#ff9900" d="M 128.511719 77.898438 C 125.054688 84.214844 117.835938 91.34375 119.472656 97.730469 C 124.832031 97.246094 130.222656 97.261719 135.578125 97.777344 C 133.160156 90.984375 130.738281 84.1875 128.511719 77.898438 " fill-opacity="1" fill-rule="nonzero"/><g clip-path="url(#1eed873069)"><path fill="#e88772" d="M 142.304688 116.570312 C 142.375 116.546875 141.859375 115.808594 141.863281 115.527344 C 141.953125 112.128906 141.703125 101.289062 138.925781 96.285156 C 138.273438 95.113281 137.460938 94.03125 136.953125 92.789062 C 134.738281 87.367188 138.003906 79.042969 136.03125 69.675781 C 135.269531 66.058594 125.878906 65.480469 126.085938 68.378906 C 126.363281 72.300781 128.722656 84.753906 130.265625 91.140625 C 132.078125 98.621094 136.132812 107.40625 136.90625 115.238281 C 136.90625 115.238281 139.574219 117.464844 142.304688 116.570312 " fill-opacity="1" fill-rule="nonzero"/></g><path fill="#e88772" d="M 122.355469 68.304688 C 120.6875 71.867188 116.699219 83.894531 114.945312 90.226562 C 112.890625 97.644531 112.164062 107.296875 109.03125 114.511719 C 108.507812 115.71875 104.601562 116.0625 103.0625 117.578125 C 102.640625 117.992188 102.941406 118.707031 103.53125 118.707031 C 105.566406 118.707031 109.988281 118.699219 112.453125 118.695312 C 113.429688 118.695312 114.1875 117.84375 114.078125 116.875 C 113.988281 116.0625 113.898438 115.488281 114.039062 115.246094 C 115.769531 112.316406 120.003906 104.65625 120.007812 98.933594 C 120.007812 97.59375 119.824219 96.25 119.984375 94.917969 C 120.683594 89.105469 127.585938 83.417969 130.414062 74.269531 C 131.507812 70.738281 123.585938 65.667969 122.355469 68.304688 " fill-opacity="1" fill-rule="nonzero"/><path fill="#f5d562" d="M 114.507812 118.699219 L 114.175781 116.472656 C 114.15625 116.351562 114.042969 116.269531 113.921875 116.292969 C 113.128906 116.433594 110.386719 116.773438 109.144531 115.035156 C 108.972656 114.792969 108.644531 114.71875 108.390625 114.875 C 106.886719 115.808594 105.566406 115.464844 103.796875 116.273438 C 102.980469 116.648438 102.707031 117.945312 102.617188 118.71875 Z M 114.507812 118.699219 " fill-opacity="1" fill-rule="nonzero"/><path fill="#fcfcf0" d="M 102.617188 118.71875 C 102.578125 119.035156 102.828125 119.3125 103.144531 119.3125 L 113.980469 119.3125 C 114.308594 119.3125 114.554688 119.023438 114.507812 118.699219 L 114.476562 118.476562 L 102.648438 118.476562 C 102.636719 118.5625 102.625 118.644531 102.617188 118.71875 " fill-opacity="1" fill-rule="nonzero"/><path fill="#fcfcf0" d="M 106.082031 116.890625 C 106.054688 116.890625 106.027344 116.875 106.011719 116.851562 L 105.40625 115.792969 C 105.386719 115.753906 105.398438 115.703125 105.4375 115.683594 C 105.472656 115.660156 105.523438 115.671875 105.546875 115.710938 L 106.152344 116.769531 C 106.171875 116.808594 106.160156 116.859375 106.121094 116.878906 C 106.109375 116.886719 106.09375 116.890625 106.082031 116.890625 Z M 106.082031 116.890625 " fill-opacity="1" fill-rule="nonzero"/><path fill="#fcfcf0" d="M 107.648438 116.582031 C 107.621094 116.582031 107.59375 116.566406 107.578125 116.542969 L 106.972656 115.484375 C 106.949219 115.445312 106.964844 115.394531 107.003906 115.375 C 107.039062 115.351562 107.089844 115.367188 107.113281 115.402344 L 107.71875 116.460938 C 107.738281 116.5 107.726562 116.550781 107.6875 116.570312 C 107.675781 116.578125 107.660156 116.582031 107.648438 116.582031 Z M 107.648438 116.582031 " fill-opacity="1" fill-rule="nonzero"/><g clip-path="url(#596e98b581)"><path fill="#f5d562" d="M 142.785156 118.699219 L 142.453125 116.472656 C 142.433594 116.351562 142.320312 116.269531 142.199219 116.292969 C 141.40625 116.433594 138.664062 116.773438 137.421875 115.035156 C 137.25 114.792969 136.921875 114.71875 136.667969 114.875 C 135.164062 115.808594 133.84375 115.464844 132.074219 116.273438 C 131.257812 116.648438 130.984375 117.945312 130.894531 118.71875 Z M 142.785156 118.699219 " fill-opacity="1" fill-rule="nonzero"/></g><g clip-path="url(#f4600fb123)"><path fill="#fcfcf0" d="M 130.894531 118.71875 C 130.855469 119.035156 131.105469 119.3125 131.421875 119.3125 L 142.257812 119.3125 C 142.585938 119.3125 142.832031 119.023438 142.785156 118.699219 L 142.75 118.476562 L 130.925781 118.476562 C 130.914062 118.5625 130.902344 118.644531 130.894531 118.71875 " fill-opacity="1" fill-rule="nonzero"/></g><path fill="#fcfcf0" d="M 134.359375 116.890625 C 134.332031 116.890625 134.304688 116.875 134.289062 116.851562 L 133.683594 115.792969 C 133.664062 115.753906 133.675781 115.703125 133.714844 115.683594 C 133.753906 115.660156 133.800781 115.671875 133.824219 115.710938 L 134.429688 116.769531 C 134.449219 116.808594 134.4375 116.859375 134.398438 116.878906 C 134.386719 116.886719 134.371094 116.890625 134.359375 116.890625 Z M 134.359375 116.890625 " fill-opacity="1" fill-rule="nonzero"/><path fill="#fcfcf0" d="M 135.925781 116.582031 C 135.898438 116.582031 135.871094 116.566406 135.855469 116.542969 L 135.25 115.484375 C 135.226562 115.445312 135.242188 115.394531 135.28125 115.375 C 135.316406 115.351562 135.367188 115.367188 135.390625 115.402344 L 135.996094 116.460938 C 136.015625 116.5 136.003906 116.550781 135.964844 116.570312 C 135.953125 116.578125 135.9375 116.582031 135.925781 116.582031 Z M 135.925781 116.582031 " fill-opacity="1" fill-rule="nonzero"/><g clip-path="url(#e17e2632a5)"><path fill="#fcfcf0" d="M 126.167969 67.046875 C 127.082031 81.65625 129.589844 92.804688 134.195312 106.621094 C 134.992188 106.160156 141.875 105.230469 142.3125 104.933594 C 140.691406 92.578125 137.527344 93.839844 136.949219 89.4375 C 136.4375 85.539062 139.121094 76.175781 137.320312 70.894531 C 136.277344 67.828125 130.789062 62.816406 130.789062 62.816406 C 130.789062 62.816406 127.785156 65.792969 126.167969 67.046875 " fill-opacity="1" fill-rule="nonzero"/></g><path fill="#fcfcf0" d="M 122.855469 67.359375 C 116.617188 80.605469 113.652344 90.683594 111.027344 105.007812 C 111.945312 104.988281 118.695312 106.667969 119.222656 106.621094 C 122.691406 97.742188 119.898438 96.308594 121.511719 92.175781 C 122.691406 89.160156 124.476562 86.433594 126.269531 83.738281 C 128.066406 81.042969 129.824219 78.238281 130.597656 75.09375 C 131.371094 71.949219 131.023438 68.363281 128.941406 65.882812 C 126.910156 66.460938 124.875 67.042969 122.855469 67.359375 " fill-opacity="1" fill-rule="nonzero"/><path fill="#ff9900" d="M 128.085938 80.960938 C 128.074219 80.960938 128.0625 80.957031 128.046875 80.949219 C 128.011719 80.925781 127.996094 80.878906 128.019531 80.839844 C 128.621094 79.757812 129.21875 79.261719 129.796875 78.777344 C 130.382812 78.285156 130.992188 77.78125 131.621094 76.648438 C 132.453125 75.152344 132.183594 73.109375 132.179688 73.089844 C 132.175781 73.046875 132.207031 73.003906 132.25 73 C 132.292969 72.992188 132.332031 73.023438 132.339844 73.066406 C 132.351562 73.152344 132.621094 75.183594 131.761719 76.726562 C 131.117188 77.882812 130.496094 78.402344 129.898438 78.898438 C 129.304688 79.394531 128.746094 79.863281 128.15625 80.917969 C 128.144531 80.945312 128.117188 80.960938 128.085938 80.960938 Z M 128.085938 80.960938 " fill-opacity="1" fill-rule="nonzero"/><path fill="#f5d562" d="M 110.667969 52.183594 C 111.375 47.023438 115.542969 43.414062 123.648438 50.46875 C 127.855469 54.132812 131.90625 63.550781 136.847656 68.492188 C 133.835938 72.992188 125.292969 75.140625 119.300781 74.332031 C 120.210938 68.441406 118.066406 66.652344 115.167969 64.019531 C 112.65625 61.742188 109.71875 59.109375 110.667969 52.183594 " fill-opacity="1" fill-rule="nonzero"/><path fill="#ff9900" d="M 116.140625 64.5 C 116.140625 64.5 118.679688 68.132812 118.773438 69.585938 C 118.882812 71.238281 110.570312 95.015625 110.484375 96.980469 C 110.40625 98.867188 118.328125 98.507812 118.328125 98.507812 C 118.328125 98.507812 128.6875 71.582031 130.519531 68.414062 C 131.117188 67.382812 134.285156 65.480469 134.285156 65.480469 C 134.285156 65.480469 133.84375 64.828125 133.632812 64.589844 C 133.128906 64.820312 130.8125 66.46875 129.726562 66.679688 C 126.253906 67.347656 119.941406 65.496094 116.230469 62.445312 C 116.105469 63.164062 116.140625 64.5 116.140625 64.5 " fill-opacity="1" fill-rule="nonzero"/><path fill="#e88772" d="M 111.925781 52.578125 L 112.472656 67.011719 L 104.734375 75.234375 L 106.675781 77.375 C 106.675781 77.375 116.53125 71.21875 117.203125 67.84375 C 117.976562 63.992188 117.4375 54.4375 117.4375 54.4375 Z M 111.925781 52.578125 " fill-opacity="1" fill-rule="nonzero"/><path fill="#ff9900" d="M 109.292969 69.878906 C 108.785156 69.769531 106.101562 73.746094 104.265625 74.902344 C 102.460938 76.042969 101.375 77.074219 100.980469 78.390625 C 100.800781 79 101.058594 79.257812 101.304688 79.28125 C 101.621094 79.3125 101.828125 79.136719 101.828125 79.136719 C 101.828125 79.136719 101.820312 79.347656 102.183594 79.484375 C 102.53125 79.613281 102.707031 79.492188 102.722656 79.511719 C 103.050781 79.949219 103.582031 79.714844 103.636719 79.765625 C 103.953125 80.0625 104.382812 79.976562 104.839844 79.644531 C 105.289062 79.320312 106.054688 78.179688 106.933594 77.535156 C 107.761719 76.933594 111.984375 74.617188 112.425781 73.902344 C 112.859375 73.207031 109.71875 69.972656 109.292969 69.878906 " fill-opacity="1" fill-rule="nonzero"/><path fill="#3d251c" d="M 102.746094 79.484375 C 102.738281 79.484375 102.726562 79.480469 102.714844 79.476562 C 102.675781 79.457031 102.65625 79.410156 102.671875 79.371094 L 102.972656 78.664062 C 102.992188 78.625 103.039062 78.605469 103.078125 78.621094 C 103.121094 78.640625 103.136719 78.6875 103.121094 78.726562 L 102.820312 79.433594 C 102.808594 79.464844 102.777344 79.484375 102.746094 79.484375 Z M 102.746094 79.484375 " fill-opacity="1" fill-rule="nonzero"/><path fill="#3d251c" d="M 101.910156 79.070312 C 101.902344 79.070312 101.890625 79.070312 101.878906 79.066406 C 101.839844 79.046875 101.820312 79 101.835938 78.960938 L 102.136719 78.253906 C 102.15625 78.210938 102.203125 78.195312 102.242188 78.210938 C 102.285156 78.230469 102.300781 78.277344 102.285156 78.316406 L 101.984375 79.023438 C 101.972656 79.054688 101.941406 79.070312 101.910156 79.070312 Z M 101.910156 79.070312 " fill-opacity="1" fill-rule="nonzero"/><path fill="#3d251c" d="M 103.667969 79.726562 C 103.652344 79.726562 103.636719 79.722656 103.625 79.710938 C 103.589844 79.6875 103.578125 79.636719 103.601562 79.601562 L 104.03125 78.972656 C 104.058594 78.933594 104.109375 78.925781 104.144531 78.949219 C 104.179688 78.976562 104.191406 79.023438 104.164062 79.0625 L 103.734375 79.691406 C 103.71875 79.714844 103.695312 79.726562 103.667969 79.726562 Z M 103.667969 79.726562 " fill-opacity="1" fill-rule="nonzero"/><path fill="#f5d562" d="M 115.121094 49.003906 C 109.414062 49.003906 110.320312 58.203125 109.972656 63.410156 C 109.898438 64.523438 118.042969 64.652344 119.03125 63.410156 C 118.902344 61.925781 119.019531 49.003906 115.121094 49.003906 " fill-opacity="1" fill-rule="nonzero"/><path fill="#3d251c" d="M 119.222656 63.492188 C 119.179688 63.492188 119.144531 63.457031 119.144531 63.414062 C 119.136719 63.171875 119.089844 62.742188 119.03125 62.203125 C 118.824219 60.25 118.476562 56.988281 119.152344 55.800781 C 119.175781 55.761719 119.226562 55.75 119.261719 55.769531 C 119.300781 55.792969 119.316406 55.84375 119.292969 55.878906 C 118.644531 57.023438 118.988281 60.253906 119.191406 62.183594 C 119.25 62.730469 119.296875 63.160156 119.304688 63.410156 C 119.304688 63.453125 119.269531 63.488281 119.226562 63.492188 C 119.226562 63.492188 119.226562 63.492188 119.222656 63.492188 Z M 119.222656 63.492188 " fill-opacity="1" fill-rule="nonzero"/><path fill="#3d251c" d="M 103.925781 40.023438 C 103.789062 41.472656 107.71875 41.59375 108.429688 41.703125 C 110.742188 42.054688 110.855469 43.613281 112.246094 44.738281 C 113.285156 45.585938 114.167969 45.492188 114.753906 44.503906 C 115.535156 43.203125 116.148438 39.585938 113.757812 37.191406 C 112.667969 36.105469 110.972656 35.816406 109.457031 36.0625 C 107.941406 36.3125 104.136719 37.835938 103.925781 40.023438 " fill-opacity="1" fill-rule="nonzero"/><path fill="#e88772" d="M 109.441406 42.789062 C 109.488281 42.027344 110.207031 40.75 111.28125 41.085938 C 111.652344 41.203125 111.933594 41.53125 112.050781 41.902344 C 112.226562 42.457031 111.925781 44.792969 110.453125 44.738281 C 109.933594 44.71875 109.386719 43.679688 109.441406 42.789062 " fill-opacity="1" fill-rule="nonzero"/><path fill="#3d251c" d="M 109.957031 43.441406 C 109.917969 43.441406 109.886719 43.414062 109.878906 43.378906 C 109.746094 42.671875 110.261719 41.820312 110.917969 41.65625 C 110.960938 41.644531 111.003906 41.671875 111.011719 41.714844 C 111.023438 41.757812 111 41.800781 110.957031 41.8125 C 110.386719 41.953125 109.921875 42.730469 110.035156 43.347656 C 110.042969 43.390625 110.015625 43.433594 109.972656 43.441406 C 109.96875 43.441406 109.960938 43.441406 109.957031 43.441406 Z M 109.957031 43.441406 " fill-opacity="1" fill-rule="nonzero"/><path fill="#ff9900" d="M 104.730469 74.847656 C 103.9375 74.59375 100.335938 76.046875 99.96875 76.511719 C 99.78125 76.75 100.234375 77.132812 100.921875 77.132812 C 101.410156 77.132812 103.644531 76.933594 104.050781 76.617188 C 104.507812 76.257812 105.226562 75.003906 104.730469 74.847656 " fill-opacity="1" fill-rule="nonzero"/><path fill="#3d251c" d="M 113.226562 44.601562 C 113.332031 45.464844 113.609375 46.304688 114.039062 47.058594 C 114.25 47.429688 114.507812 47.792969 114.871094 48.019531 C 115.511719 48.421875 116.410156 48.308594 116.972656 47.804688 C 117.535156 47.296875 117.746094 46.460938 117.554688 45.726562 C 117.359375 44.996094 116.792969 44.390625 116.101562 44.085938 C 115.410156 43.78125 114.609375 43.769531 113.882812 43.980469 C 113.683594 44.042969 113.480469 44.121094 113.324219 44.261719 C 113.167969 44.402344 113.0625 44.613281 113.226562 44.601562 " fill-opacity="1" fill-rule="nonzero"/><path fill="#ff9900" d="M 132.503906 65.484375 C 132.503906 65.484375 132.667969 70.996094 133.273438 71.378906 C 133.59375 71.582031 134.457031 71.148438 134.457031 71.148438 C 134.457031 71.148438 135.59375 73.191406 136.160156 74.214844 C 136.648438 73.988281 137.140625 73.765625 137.628906 73.539062 C 137.46875 73.429688 135.15625 68.863281 135.15625 68.863281 L 138.421875 73.210938 L 139.496094 72.542969 L 137.332031 69.425781 C 137.332031 69.425781 138.253906 68.894531 138.144531 68.3125 C 137.953125 67.324219 136.410156 65.867188 133.5 64.886719 C 133.382812 64.996094 132.503906 65.484375 132.503906 65.484375 " fill-opacity="1" fill-rule="nonzero"/><path fill="#e88772" d="M 44.042969 47.4375 L 42.691406 61.832031 L 43.75 77.792969 L 40.09375 78.484375 C 40.09375 78.484375 36.460938 68.085938 36.445312 63.417969 C 36.4375 61.007812 37.570312 47.707031 37.570312 47.707031 Z M 44.042969 47.4375 " fill-opacity="1" fill-rule="nonzero"/><path fill="#e88772" d="M 35.90625 118.53125 C 35.828125 118.53125 36.894531 115.074219 36.78125 114.808594 C 35.402344 111.578125 31.988281 100.277344 32.753906 94.398438 C 32.933594 93.019531 33.304688 91.664062 33.316406 90.273438 C 33.386719 84.210938 27.304688 79.261719 25.640625 69.5 C 24.996094 65.730469 34.136719 61.761719 35.039062 64.625 C 36.265625 68.5 40.316406 81.914062 40.695312 88.699219 C 41.171875 97.171875 40.046875 107.054688 42.28125 114.875 C 42.28125 114.875 39.527344 118.621094 35.90625 118.53125 " fill-opacity="1" fill-rule="nonzero"/><path fill="#f5d562" d="M 35.925781 118.644531 L 36.304688 116.097656 C 36.324219 115.960938 36.453125 115.867188 36.589844 115.890625 C 37.5 116.050781 40.636719 116.4375 42.050781 114.449219 C 42.246094 114.171875 42.621094 114.089844 42.910156 114.265625 C 44.632812 115.328125 45.839844 115.363281 47.9375 116.089844 C 49.175781 116.515625 49.410156 117.769531 49.515625 118.652344 Z M 35.925781 118.644531 " fill-opacity="1" fill-rule="nonzero"/><path fill="#fcfcf0" d="M 49.515625 118.652344 C 49.558594 119.011719 49.273438 119.328125 48.910156 119.328125 L 36.527344 119.339844 C 36.15625 119.34375 35.871094 119.011719 35.925781 118.644531 L 35.964844 118.386719 L 49.476562 118.371094 C 49.492188 118.46875 49.503906 118.566406 49.515625 118.652344 " fill-opacity="1" fill-rule="nonzero"/><path fill="#fcfcf0" d="M 45.640625 116.832031 C 45.632812 116.832031 45.621094 116.832031 45.613281 116.828125 C 45.570312 116.808594 45.550781 116.761719 45.566406 116.722656 L 46.042969 115.511719 C 46.058594 115.46875 46.105469 115.449219 46.144531 115.464844 C 46.1875 115.480469 46.207031 115.527344 46.191406 115.570312 L 45.714844 116.78125 C 45.703125 116.8125 45.671875 116.832031 45.640625 116.832031 Z M 45.640625 116.832031 " fill-opacity="1" fill-rule="nonzero"/><path fill="#fcfcf0" d="M 43.925781 116.300781 C 43.914062 116.300781 43.90625 116.296875 43.894531 116.292969 C 43.855469 116.277344 43.832031 116.230469 43.851562 116.191406 L 44.324219 114.980469 C 44.339844 114.9375 44.386719 114.917969 44.429688 114.933594 C 44.46875 114.949219 44.492188 114.996094 44.476562 115.039062 L 44 116.25 C 43.988281 116.28125 43.957031 116.300781 43.925781 116.300781 Z M 43.925781 116.300781 " fill-opacity="1" fill-rule="nonzero"/><path fill="#ff9900" d="M 23.84375 66.441406 C 24.191406 74.660156 32.898438 86.226562 31.949219 89.847656 C 30.824219 94.140625 31.332031 102.769531 33.28125 111.191406 C 33.769531 111.234375 43.171875 108.867188 43.59375 108.972656 C 43.761719 108.640625 41.144531 95.976562 41.386719 89.515625 C 41.65625 82.277344 35.292969 62.527344 35.367188 61.898438 C 34.546875 62.121094 24.515625 66.253906 23.84375 66.441406 " fill-opacity="1" fill-rule="nonzero"/><g clip-path="url(#f9ced3f8c8)"><path fill="#e88772" d="M 7.289062 114.527344 C 7.21875 114.492188 9.636719 111.804688 9.648438 111.515625 C 9.757812 108.003906 11.414062 96.316406 14.582031 91.304688 C 15.324219 90.132812 16.230469 89.054688 16.828125 87.800781 C 19.441406 82.332031 16.007812 75.28125 18.605469 65.726562 C 19.605469 62.035156 29.566406 62.277344 29.183594 65.257812 C 28.664062 69.289062 26.695312 83.164062 24.1875 89.476562 C 21.050781 97.363281 15.875 105.855469 14.609375 113.890625 C 14.609375 113.890625 10.539062 116.128906 7.289062 114.527344 " fill-opacity="1" fill-rule="nonzero"/></g><g clip-path="url(#7260064d89)"><path fill="#f5d562" d="M 7.386719 114.542969 L 8.78125 112.382812 C 8.859375 112.265625 9.015625 112.234375 9.128906 112.3125 C 9.890625 112.835938 12.585938 114.484375 14.695312 113.257812 C 14.988281 113.089844 15.367188 113.167969 15.554688 113.449219 C 16.683594 115.128906 17.765625 115.660156 19.378906 117.1875 C 20.328125 118.085938 20.023438 119.324219 19.753906 120.171875 Z M 7.386719 114.542969 " fill-opacity="1" fill-rule="nonzero"/></g><g clip-path="url(#07c39a5040)"><path fill="#fcfcf0" d="M 19.753906 120.171875 C 19.644531 120.519531 19.253906 120.691406 18.925781 120.539062 L 7.644531 115.429688 C 7.304688 115.277344 7.183594 114.855469 7.386719 114.542969 L 7.527344 114.324219 L 19.835938 119.902344 C 19.808594 119.996094 19.78125 120.089844 19.753906 120.171875 " fill-opacity="1" fill-rule="nonzero"/></g><path fill="#fcfcf0" d="M 17.015625 116.921875 C 16.992188 116.921875 16.972656 116.914062 16.957031 116.894531 C 16.925781 116.863281 16.925781 116.8125 16.957031 116.78125 L 17.890625 115.875 C 17.925781 115.84375 17.972656 115.847656 18.003906 115.878906 C 18.035156 115.910156 18.035156 115.960938 18.003906 115.992188 L 17.070312 116.898438 C 17.054688 116.914062 17.035156 116.921875 17.015625 116.921875 Z M 17.015625 116.921875 " fill-opacity="1" fill-rule="nonzero"/><path fill="#fcfcf0" d="M 15.671875 115.726562 C 15.648438 115.726562 15.628906 115.71875 15.613281 115.703125 C 15.582031 115.671875 15.582031 115.621094 15.613281 115.589844 L 16.546875 114.683594 C 16.582031 114.652344 16.632812 114.652344 16.660156 114.683594 C 16.691406 114.714844 16.691406 114.765625 16.660156 114.796875 L 15.726562 115.703125 C 15.710938 115.71875 15.691406 115.726562 15.671875 115.726562 Z M 15.671875 115.726562 " fill-opacity="1" fill-rule="nonzero"/><path fill="#ff9900" d="M 18.023438 62.355469 C 14.878906 69.960938 18.152344 83.953125 15.765625 86.839844 C 12.941406 90.261719 12.726562 92.019531 8.457031 106.167969 C 8.882812 106.410156 19.273438 109.355469 19.609375 109.628906 C 19.90625 109.402344 21.53125 96.269531 24.46875 90.507812 C 27.761719 84.054688 30.292969 63.460938 30.628906 62.917969 C 29.789062 62.78125 18.363281 62.320312 18.023438 62.355469 " fill-opacity="1" fill-rule="nonzero"/><path fill="#fcfcf0" d="M 43.097656 41.597656 C 41.503906 38.894531 34.660156 33.945312 29.179688 35.488281 C 20.765625 37.855469 18.386719 51.933594 17.546875 60.667969 C 17.449219 61.664062 32.070312 72.234375 33.46875 67.714844 C 34.691406 63.761719 38.988281 55.78125 38.988281 55.78125 L 44.441406 56.84375 C 44.441406 56.84375 45.757812 46.109375 43.097656 41.597656 " fill-opacity="1" fill-rule="nonzero"/><path fill="#f5d562" d="M 17.769531 63.019531 L 17.945312 60.40625 C 17.945312 60.40625 30.570312 44.332031 30.53125 44.132812 C 30.476562 43.847656 41.144531 47.457031 41.234375 47.910156 C 41.351562 48.503906 36.597656 61.820312 36.832031 64.121094 C 37.117188 66.890625 42.382812 79.757812 43.59375 86.484375 C 32.914062 86.613281 22.953125 85.691406 22.589844 85.691406 C 23.132812 68.929688 17.769531 63.019531 17.769531 63.019531 " fill-opacity="1" fill-rule="nonzero"/><path fill="#e88772" d="M 40.082031 78.582031 C 38.726562 73.585938 36.570312 64.929688 36.839844 63.648438 C 37.054688 62.605469 41.59375 60.574219 42.398438 63.53125 C 42.9375 65.507812 42.960938 72.644531 43.359375 76.988281 C 42.507812 77.574219 41.652344 78.160156 40.082031 78.582031 " fill-opacity="1" fill-rule="nonzero"/><path fill="#fcfcf0" d="M 37.820312 71.464844 C 37.664062 72.273438 39.019531 76.367188 39.691406 78.820312 C 38.96875 80.167969 39.726562 81.527344 38.90625 82.558594 C 38.539062 83.015625 40.792969 86.214844 41.335938 86.460938 C 42.019531 86.769531 42.726562 84.949219 43.183594 83.496094 C 43.648438 82.03125 43.617188 79.792969 43.703125 78.535156 C 43.785156 77.296875 44.230469 70.585938 44.042969 70.214844 C 43.800781 69.726562 37.957031 70.742188 37.820312 71.464844 " fill-opacity="1" fill-rule="nonzero"/><path fill="#3d251c" d="M 61.570312 109.628906 C 61.390625 109.628906 61.214844 109.554688 61.085938 109.410156 L 14.355469 55.996094 C 14.121094 55.726562 14.148438 55.324219 14.414062 55.089844 C 14.679688 54.855469 15.085938 54.882812 15.320312 55.148438 L 62.050781 108.566406 C 62.285156 108.832031 62.257812 109.238281 61.992188 109.472656 C 61.871094 109.578125 61.71875 109.628906 61.570312 109.628906 Z M 61.570312 109.628906 " fill-opacity="1" fill-rule="nonzero"/><path fill="#e88772" d="M 27.5625 41.421875 L 19.035156 51.355469 L 24.863281 64.265625 L 20.582031 65.304688 C 20.582031 65.304688 11.195312 53.328125 12.007812 49.992188 C 12.527344 47.859375 22.523438 37.839844 22.523438 37.839844 Z M 27.5625 41.421875 " fill-opacity="1" fill-rule="nonzero"/><path fill="#fcfcf0" d="M 21.726562 57.390625 C 22.316406 57.503906 24.171875 61.109375 25.429688 63.269531 C 26.609375 65.285156 29.347656 69.808594 30.46875 72.214844 C 30.746094 72.804688 30.011719 73.097656 29.585938 72.460938 C 28.976562 71.539062 27.714844 69.996094 27.539062 69.539062 C 27.441406 69.746094 27.308594 70.648438 26.695312 70.863281 C 26.074219 71.085938 25.699219 70.777344 25.671875 70.792969 C 25.125 71.105469 24.667969 70.617188 24.582031 70.648438 C 24.117188 70.816406 23.40625 70.554688 23.058594 69.753906 C 22.804688 69.167969 22.035156 67.003906 21.644531 66.636719 C 20.695312 65.742188 16.320312 62.152344 16.304688 61.605469 C 16.273438 60.65625 21.230469 57.296875 21.726562 57.390625 " fill-opacity="1" fill-rule="nonzero"/><path fill="#3d251c" d="M 25.664062 70.695312 C 25.621094 70.695312 25.582031 70.660156 25.582031 70.617188 L 25.558594 69.503906 C 25.558594 69.460938 25.59375 69.421875 25.636719 69.421875 C 25.636719 69.421875 25.640625 69.421875 25.640625 69.421875 C 25.683594 69.421875 25.71875 69.457031 25.71875 69.5 L 25.742188 70.613281 C 25.742188 70.660156 25.707031 70.695312 25.664062 70.695312 Z M 25.664062 70.695312 " fill-opacity="1" fill-rule="nonzero"/><path fill="#3d251c" d="M 24.597656 70.542969 C 24.558594 70.542969 24.523438 70.515625 24.519531 70.476562 L 24.332031 69.496094 C 24.324219 69.453125 24.351562 69.410156 24.394531 69.402344 C 24.4375 69.394531 24.480469 69.421875 24.488281 69.464844 L 24.675781 70.449219 C 24.683594 70.492188 24.65625 70.53125 24.613281 70.542969 C 24.605469 70.542969 24.601562 70.542969 24.597656 70.542969 Z M 24.597656 70.542969 " fill-opacity="1" fill-rule="nonzero"/><path fill="#fcfcf0" d="M 22.945312 49.402344 C 22.945312 49.402344 17.96875 44.632812 16.054688 42.160156 C 19.746094 38.9375 22.597656 36.652344 28.070312 35.199219 C 31.320312 34.335938 35.070312 35.375 36.816406 36.5625 C 32.09375 40.679688 22.945312 49.402344 22.945312 49.402344 " fill-opacity="1" fill-rule="nonzero"/><path fill="#3d251c" d="M 48.996094 31.660156 C 49.449219 30.265625 49.257812 27.511719 46.585938 25.832031 C 44.339844 24.425781 42.3125 23.953125 40.09375 25.261719 C 35.855469 27.761719 36.125 33.015625 38.484375 34.832031 C 41.449219 37.109375 47.492188 36.324219 48.996094 31.660156 " fill-opacity="1" fill-rule="nonzero"/><path fill="#e88772" d="M 41.714844 36.121094 C 41.53125 36.527344 39.371094 39.9375 38.621094 42.175781 C 38.355469 42.035156 36.003906 38.503906 34.929688 36.683594 C 36.609375 35.125 37.570312 34.171875 38.332031 31.835938 C 38.382812 32.214844 40.367188 34.960938 41.714844 36.121094 " fill-opacity="1" fill-rule="nonzero"/><path fill="#e88772" d="M 46.605469 35.226562 C 47.238281 33.859375 48.4375 32.578125 48.105469 30.722656 C 47.492188 27.285156 43.242188 25.675781 40.921875 27.441406 C 39.476562 28.542969 38.066406 31.140625 38.222656 33.328125 C 38.363281 35.316406 40.472656 38.613281 42.339844 38.777344 C 43.664062 38.890625 45.46875 37.699219 46.605469 35.226562 " fill-opacity="1" fill-rule="nonzero"/><path fill="#3d251c" d="M 43.488281 31.84375 C 43.667969 31.976562 43.570312 32.289062 43.472656 32.460938 C 43.398438 32.585938 43.214844 32.835938 42.976562 32.722656 C 42.792969 32.636719 42.792969 32.386719 42.988281 32.070312 C 43.191406 31.75 43.414062 31.789062 43.488281 31.84375 " fill-opacity="1" fill-rule="nonzero"/><path fill="#3d251c" d="M 43.097656 32.832031 C 43.042969 32.832031 42.992188 32.820312 42.941406 32.796875 C 42.859375 32.757812 42.800781 32.691406 42.773438 32.601562 C 42.730469 32.449219 42.785156 32.246094 42.921875 32.027344 C 43.085938 31.765625 43.269531 31.726562 43.359375 31.726562 C 43.425781 31.726562 43.488281 31.746094 43.535156 31.777344 C 43.769531 31.949219 43.648438 32.3125 43.542969 32.5 C 43.484375 32.601562 43.324219 32.832031 43.097656 32.832031 Z M 43.359375 31.886719 C 43.300781 31.886719 43.179688 31.917969 43.058594 32.113281 C 42.945312 32.289062 42.898438 32.453125 42.929688 32.558594 C 42.941406 32.601562 42.96875 32.632812 43.011719 32.652344 C 43.039062 32.664062 43.066406 32.671875 43.097656 32.671875 C 43.246094 32.671875 43.367188 32.480469 43.402344 32.417969 C 43.488281 32.265625 43.570312 32.003906 43.4375 31.90625 C 43.425781 31.898438 43.398438 31.886719 43.359375 31.886719 Z M 43.359375 31.886719 " fill-opacity="1" fill-rule="nonzero"/><path fill="#e88772" d="M 43.921875 32.480469 C 43.472656 32.441406 42.734375 31.976562 42.414062 31.632812 C 42.414062 31.632812 43.003906 31.253906 43.59375 31.621094 C 44.113281 31.945312 43.921875 32.480469 43.921875 32.480469 " fill-opacity="1" fill-rule="nonzero"/><path fill="#3d251c" d="M 43.921875 32.5625 C 43.921875 32.5625 43.917969 32.5625 43.914062 32.5625 C 43.457031 32.519531 42.699219 32.058594 42.355469 31.6875 C 42.324219 31.65625 42.328125 31.605469 42.359375 31.574219 C 42.390625 31.546875 42.441406 31.546875 42.472656 31.578125 C 42.789062 31.921875 43.511719 32.363281 43.929688 32.402344 C 43.972656 32.40625 44.007812 32.445312 44.003906 32.488281 C 44 32.53125 43.964844 32.5625 43.921875 32.5625 Z M 43.921875 32.5625 " fill-opacity="1" fill-rule="nonzero"/><path fill="#3d251c" d="M 42.628906 30.765625 C 42.539062 30.769531 42.523438 30.886719 42.609375 30.925781 C 43.652344 31.375 44.273438 32.035156 44.40625 32.078125 C 44.511719 32.109375 44.660156 31.726562 44.558594 31.613281 C 43.882812 30.882812 43.121094 30.730469 42.628906 30.765625 " fill-opacity="1" fill-rule="nonzero"/><path fill="#3d251c" d="M 46.234375 33.390625 C 46.023438 33.304688 45.8125 33.550781 45.714844 33.722656 C 45.644531 33.851562 45.527344 34.140625 45.746094 34.285156 C 45.914062 34.398438 46.132812 34.269531 46.296875 33.933594 C 46.464844 33.597656 46.316406 33.425781 46.234375 33.390625 " fill-opacity="1" fill-rule="nonzero"/><path fill="#3d251c" d="M 45.871094 34.40625 C 45.8125 34.40625 45.753906 34.386719 45.699219 34.351562 C 45.507812 34.222656 45.484375 33.972656 45.644531 33.683594 C 45.742188 33.503906 45.933594 33.292969 46.144531 33.292969 C 46.1875 33.292969 46.226562 33.300781 46.265625 33.320312 C 46.335938 33.347656 46.398438 33.417969 46.429688 33.503906 C 46.460938 33.59375 46.480469 33.75 46.367188 33.972656 C 46.230469 34.246094 46.050781 34.40625 45.871094 34.40625 Z M 46.144531 33.453125 C 46.015625 33.453125 45.867188 33.613281 45.785156 33.761719 C 45.730469 33.863281 45.621094 34.105469 45.789062 34.21875 C 45.917969 34.304688 46.09375 34.167969 46.226562 33.898438 C 46.308594 33.730469 46.300781 33.621094 46.277344 33.558594 C 46.257812 33.5 46.21875 33.472656 46.203125 33.464844 C 46.183594 33.457031 46.164062 33.453125 46.144531 33.453125 Z M 46.144531 33.453125 " fill-opacity="1" fill-rule="nonzero"/><path fill="#e88772" d="M 45.460938 33.347656 C 45.730469 33.714844 46.511719 34.105469 46.96875 34.203125 C 46.96875 34.203125 46.988281 33.5 46.371094 33.1875 C 45.824219 32.90625 45.460938 33.347656 45.460938 33.347656 " fill-opacity="1" fill-rule="nonzero"/><path fill="#3d251c" d="M 46.96875 34.28125 C 46.964844 34.28125 46.957031 34.28125 46.953125 34.28125 C 46.457031 34.175781 45.671875 33.769531 45.398438 33.398438 C 45.371094 33.363281 45.378906 33.3125 45.414062 33.285156 C 45.449219 33.257812 45.5 33.265625 45.527344 33.300781 C 45.777344 33.640625 46.527344 34.027344 46.984375 34.125 C 47.027344 34.132812 47.058594 34.175781 47.046875 34.21875 C 47.039062 34.257812 47.007812 34.28125 46.96875 34.28125 Z M 46.96875 34.28125 " fill-opacity="1" fill-rule="nonzero"/><path fill="#3d251c" d="M 47.601562 33.570312 C 47.644531 33.648438 47.550781 33.71875 47.476562 33.667969 C 46.550781 33.007812 45.664062 32.816406 45.558594 32.726562 C 45.472656 32.652344 45.726562 32.328125 45.875 32.359375 C 46.851562 32.554688 47.375 33.128906 47.601562 33.570312 " fill-opacity="1" fill-rule="nonzero"/><path fill="#3d251c" d="M 44.382812 35.5 C 44.140625 35.5 43.929688 35.46875 43.882812 35.460938 C 43.839844 35.453125 43.808594 35.410156 43.816406 35.367188 C 43.824219 35.324219 43.863281 35.292969 43.90625 35.300781 C 44.28125 35.359375 44.921875 35.371094 45.039062 35.144531 C 45.132812 34.964844 45.074219 34.480469 45.011719 33.964844 C 44.976562 33.6875 44.941406 33.402344 44.925781 33.117188 C 44.921875 33.074219 44.953125 33.035156 45 33.03125 C 45.039062 33.027344 45.082031 33.0625 45.085938 33.105469 C 45.101562 33.386719 45.136719 33.671875 45.171875 33.945312 C 45.242188 34.53125 45.296875 34.996094 45.179688 35.21875 C 45.0625 35.445312 44.699219 35.5 44.382812 35.5 Z M 44.382812 35.5 " fill-opacity="1" fill-rule="nonzero"/><path fill="#3d251c" d="M 44.019531 36.71875 C 44.015625 36.71875 44.011719 36.71875 44.003906 36.71875 C 43.144531 36.578125 42.386719 35.996094 42.023438 35.207031 C 42.003906 35.167969 42.023438 35.121094 42.0625 35.101562 C 42.101562 35.082031 42.148438 35.097656 42.167969 35.140625 C 42.511719 35.882812 43.222656 36.425781 44.03125 36.558594 C 44.074219 36.566406 44.105469 36.605469 44.097656 36.652344 C 44.089844 36.691406 44.058594 36.71875 44.019531 36.71875 Z M 44.019531 36.71875 " fill-opacity="1" fill-rule="nonzero"/><path fill="#fcfcf0" d="M 40.574219 80.757812 C 39.625 81.601562 40.316406 83.210938 41.339844 84.160156 C 41.167969 85.507812 41.371094 87 41.933594 86.980469 C 42.757812 86.957031 43.148438 83.46875 42.441406 80.367188 C 42.328125 79.867188 41.152344 80.242188 40.574219 80.757812 " fill-opacity="1" fill-rule="nonzero"/><path fill="#3d251c" d="M 41.242188 85.96875 C 41.199219 85.96875 41.167969 85.9375 41.160156 85.898438 C 41.148438 85.789062 41.140625 85.671875 41.132812 85.546875 C 41.085938 84.953125 41.03125 84.207031 40.527344 83.386719 C 40.164062 82.796875 40.289062 81.578125 40.535156 81 C 40.554688 80.957031 40.601562 80.9375 40.640625 80.957031 C 40.683594 80.972656 40.703125 81.019531 40.683594 81.0625 C 40.425781 81.667969 40.359375 82.804688 40.664062 83.300781 C 41.1875 84.15625 41.246094 84.953125 41.289062 85.535156 C 41.300781 85.660156 41.308594 85.773438 41.320312 85.878906 C 41.324219 85.921875 41.292969 85.964844 41.25 85.96875 C 41.246094 85.96875 41.242188 85.96875 41.242188 85.96875 Z M 41.242188 85.96875 " fill-opacity="1" fill-rule="nonzero"/><path fill="#ff9900" d="M 60.839844 109.988281 L 57.761719 106.472656 C 57.328125 105.976562 57.378906 105.226562 57.875 104.792969 L 58.074219 104.617188 C 58.566406 104.1875 59.320312 104.234375 59.753906 104.730469 L 62.828125 108.246094 C 63.261719 108.742188 63.210938 109.496094 62.71875 109.925781 L 62.519531 110.101562 C 62.023438 110.535156 61.269531 110.484375 60.839844 109.988281 " fill-opacity="1" fill-rule="nonzero"/><path fill="#fcfcf0" d="M 62.210938 119.34375 C 62.210938 119.34375 61.046875 117.257812 58.386719 110.59375 C 56.644531 106.214844 62.71875 104.667969 65.914062 107.867188 C 69.929688 111.878906 77.867188 119.34375 77.867188 119.34375 Z M 62.210938 119.34375 " fill-opacity="1" fill-rule="nonzero"/><path fill="#f5d562" d="M 30.234375 44.574219 C 31.355469 41.574219 31.550781 37.964844 30.683594 34.878906 C 30.691406 34.855469 31.953125 34.941406 31.964844 34.953125 C 32.847656 38.09375 32.75 41.609375 31.535156 44.863281 C 31.445312 44.8125 30.398438 44.65625 30.234375 44.574219 " fill-opacity="1" fill-rule="nonzero"/><path fill="#f5d562" d="M 39.628906 48.371094 C 41.007812 45.476562 41.425781 42.273438 40.832031 39.125 C 40.835938 39.109375 41.289062 39.484375 41.644531 39.824219 C 41.878906 40.046875 42.070312 40.28125 42.074219 40.285156 C 42.679688 43.492188 42.214844 45.246094 41.023438 48.839844 C 40.941406 48.785156 39.785156 48.464844 39.628906 48.371094 " fill-opacity="1" fill-rule="nonzero"/><path fill="#ff9900" d="M 23.007812 48.996094 C 22.992188 48.996094 22.976562 48.992188 22.964844 48.980469 C 22.925781 48.957031 22.917969 48.90625 22.941406 48.871094 C 24.257812 46.945312 25.828125 45.203125 27.613281 43.699219 C 27.644531 43.671875 27.695312 43.675781 27.726562 43.710938 C 27.753906 43.742188 27.75 43.792969 27.714844 43.820312 C 25.945312 45.316406 24.382812 47.046875 23.074219 48.960938 C 23.058594 48.984375 23.035156 48.996094 23.007812 48.996094 Z M 23.007812 48.996094 " fill-opacity="1" fill-rule="nonzero"/><path fill="#fcfcf0" d="M 41.242188 86.765625 C 41.101562 87.066406 40.699219 87.214844 40.382812 87.082031 C 40.066406 86.945312 39.941406 86.484375 40.003906 86.230469 C 39.808594 86.304688 39.539062 86.332031 39.308594 86.175781 C 39.074219 86.015625 38.898438 85.726562 38.9375 85.5 C 38.796875 85.546875 38.582031 85.539062 38.417969 85.421875 C 38.253906 85.304688 38.121094 85.054688 38.117188 84.910156 C 37.980469 84.917969 37.710938 84.8125 37.601562 84.640625 C 37.300781 84.160156 37.191406 82.523438 37.664062 82.480469 C 37.976562 82.453125 38.304688 82.914062 38.5 83.695312 C 38.640625 83.378906 39.039062 82.664062 39.40625 82.75 C 39.863281 82.851562 39.742188 83.492188 39.761719 83.558594 C 39.804688 83.5 39.980469 83.210938 40.265625 83.210938 C 40.785156 83.210938 40.847656 83.914062 40.847656 84.136719 C 40.921875 83.976562 41.21875 83.71875 41.527344 83.894531 C 42.078125 84.210938 41.773438 85.625 41.242188 86.765625 " fill-opacity="1" fill-rule="nonzero"/><path fill="#3d251c" d="M 41.441406 86.222656 C 41.4375 86.222656 41.433594 86.222656 41.429688 86.222656 C 41.386719 86.214844 41.355469 86.171875 41.363281 86.128906 C 41.441406 85.617188 41.507812 85.105469 41.570312 84.609375 C 41.589844 84.472656 41.609375 84.316406 41.574219 84.183594 C 41.542969 84.074219 41.457031 83.949219 41.332031 83.933594 C 41.214844 83.917969 41.089844 83.996094 40.949219 84.167969 C 40.507812 84.714844 40.230469 85.398438 40.171875 86.09375 C 40.167969 86.140625 40.128906 86.171875 40.085938 86.167969 C 40.042969 86.164062 40.011719 86.125 40.015625 86.082031 C 40.074219 85.351562 40.363281 84.636719 40.824219 84.066406 C 41.003906 83.847656 41.175781 83.753906 41.351562 83.773438 C 41.550781 83.800781 41.683594 83.976562 41.726562 84.140625 C 41.773438 84.308594 41.75 84.480469 41.730469 84.632812 C 41.664062 85.128906 41.597656 85.640625 41.519531 86.152344 C 41.515625 86.191406 41.480469 86.222656 41.441406 86.222656 Z M 41.441406 86.222656 " fill-opacity="1" fill-rule="nonzero"/><path fill="#3d251c" d="M 39.039062 85.480469 C 38.992188 85.476562 38.957031 85.441406 38.957031 85.398438 C 38.96875 84.671875 39.261719 83.957031 39.765625 83.4375 C 39.988281 83.207031 40.203125 83.105469 40.410156 83.136719 C 40.648438 83.175781 40.800781 83.375 40.867188 83.554688 C 40.929688 83.738281 40.933594 83.929688 40.925781 84.140625 C 40.925781 84.183594 40.890625 84.222656 40.84375 84.21875 C 40.800781 84.21875 40.765625 84.179688 40.765625 84.136719 C 40.769531 83.941406 40.769531 83.765625 40.714844 83.609375 C 40.652344 83.441406 40.523438 83.316406 40.386719 83.296875 C 40.234375 83.273438 40.0625 83.359375 39.882812 83.546875 C 39.40625 84.039062 39.128906 84.714844 39.121094 85.398438 C 39.117188 85.445312 39.082031 85.480469 39.039062 85.480469 Z M 39.039062 85.480469 " fill-opacity="1" fill-rule="nonzero"/><path fill="#3d251c" d="M 38.21875 84.886719 C 38.214844 84.886719 38.210938 84.886719 38.207031 84.886719 C 38.164062 84.878906 38.132812 84.835938 38.140625 84.792969 C 38.328125 83.613281 38.628906 83.199219 38.925781 82.925781 C 39.277344 82.605469 39.5 82.636719 39.625 82.722656 C 39.875 82.894531 39.882812 83.378906 39.777344 83.652344 C 39.761719 83.695312 39.714844 83.714844 39.675781 83.699219 C 39.632812 83.683594 39.613281 83.636719 39.628906 83.597656 C 39.722656 83.355469 39.695312 82.964844 39.535156 82.855469 C 39.386719 82.753906 39.15625 82.929688 39.035156 83.042969 C 38.757812 83.296875 38.476562 83.6875 38.296875 84.816406 C 38.292969 84.859375 38.257812 84.886719 38.21875 84.886719 Z M 38.21875 84.886719 " fill-opacity="1" fill-rule="nonzero"/><path fill="#f5d562" d="M 72.332031 119.167969 C 72.308594 119.167969 72.289062 119.160156 72.273438 119.144531 L 66.621094 113.132812 C 66.589844 113.101562 66.59375 113.050781 66.625 113.019531 C 66.65625 112.988281 66.707031 112.992188 66.738281 113.023438 L 72.390625 119.035156 C 72.417969 119.066406 72.417969 119.117188 72.386719 119.148438 C 72.371094 119.164062 72.351562 119.167969 72.332031 119.167969 Z M 72.332031 119.167969 " fill-opacity="1" fill-rule="nonzero"/><path fill="#f5d562" d="M 67.28125 119.167969 C 67.257812 119.167969 67.230469 119.15625 67.214844 119.136719 L 61.203125 110.640625 C 61.179688 110.601562 61.1875 110.550781 61.222656 110.527344 C 61.257812 110.5 61.308594 110.511719 61.335938 110.546875 L 67.347656 119.042969 C 67.371094 119.078125 67.363281 119.128906 67.328125 119.15625 C 67.3125 119.164062 67.296875 119.167969 67.28125 119.167969 Z M 67.28125 119.167969 " fill-opacity="1" fill-rule="nonzero"/><path fill="#3d251c" d="M 47.054688 27.566406 C 46.773438 28.511719 45.894531 29.171875 44.980469 29.546875 C 44.0625 29.925781 43.070312 30.085938 42.144531 30.429688 C 41.214844 30.777344 41.351562 32.691406 40.5625 32.246094 C 40.015625 31.9375 40.636719 31.089844 40.402344 30.285156 C 40.222656 29.679688 39.316406 29.253906 38.6875 29.292969 C 39.339844 27.65625 40.855469 26.394531 42.582031 26.046875 C 44.308594 25.699219 46.191406 26.28125 47.054688 27.566406 " fill-opacity="1" fill-rule="nonzero"/><path fill="#e88772" d="M 40.421875 31.089844 C 40.566406 30.34375 40.183594 28.921875 39.058594 28.984375 C 38.671875 29.003906 38.320312 29.253906 38.113281 29.585938 C 37.804688 30.082031 37.519531 32.417969 38.960938 32.730469 C 39.46875 32.839844 40.257812 31.964844 40.421875 31.089844 " fill-opacity="1" fill-rule="nonzero"/><path fill="#3d251c" d="M 39.78125 31.597656 C 39.769531 31.597656 39.757812 31.597656 39.746094 31.589844 C 39.707031 31.574219 39.691406 31.523438 39.707031 31.484375 C 39.972656 30.914062 39.714844 30.046875 39.199219 29.769531 C 39.160156 29.746094 39.144531 29.699219 39.164062 29.660156 C 39.1875 29.621094 39.234375 29.605469 39.273438 29.628906 C 39.867188 29.949219 40.15625 30.902344 39.855469 31.550781 C 39.839844 31.582031 39.8125 31.597656 39.78125 31.597656 Z M 39.78125 31.597656 " fill-opacity="1" fill-rule="nonzero"/><path fill="#3d251c" d="M 45.996094 27.820312 C 46.113281 28.34375 45.953125 28.898438 45.660156 29.347656 C 45.367188 29.796875 44.953125 30.148438 44.519531 30.464844 C 44.378906 30.566406 44.214844 30.71875 44.269531 30.886719 C 44.3125 31.011719 44.464844 31.0625 44.597656 31.089844 C 45.671875 31.304688 46.824219 31.105469 47.761719 30.535156 C 48.050781 30.359375 48.332031 30.132812 48.449219 29.816406 C 48.589844 29.421875 48.4375 28.964844 48.152344 28.664062 C 47.863281 28.359375 47.460938 28.191406 47.058594 28.082031 C 46.65625 27.976562 46.238281 27.925781 45.996094 27.820312 " fill-opacity="1" fill-rule="nonzero"/></svg>